<svg viewBox="0 0 24 24" fill="none" xmlns="http://www.w3.org/2000/svg">
  <rect width="24" height="24" rx="6" fill="url(#phantom-gradient)"/>
  <path d="M12 4C7.58 4 4 7.58 4 12C4 16.42 7.58 20 12 20C16.42 20 20 16.42 20 12C20 7.58 16.42 4 12 4Z" fill="white"/>
  <path d="M9.5 10.5C9.5 9.67 10.17 9 11 9C11.83 9 12.5 9.67 12.5 10.5C12.5 11.33 11.83 12 11 12C10.17 12 9.5 11.33 9.5 10.5Z" fill="#AB9FF2"/>
  <path d="M13.5 10.5C13.5 9.67 14.17 9 15 9C15.83 9 16.5 9.67 16.5 10.5C16.5 11.33 15.83 12 15 12C14.17 12 13.5 11.33 13.5 10.5Z" fill="#AB9FF2"/>
  <path d="M8 14C8 14 9 16 12 16C15 16 16 14 16 14" stroke="#AB9FF2" stroke-width="1.5" stroke-linecap="round"/>
  <defs>
    <linearGradient id="phantom-gradient" x1="0" y1="0" x2="24" y2="24">
      <stop stop-color="#534BB1"/>
      <stop offset="1" stop-color="#AB9FF2"/>
    </linearGradient>
  </defs>
</svg>
