<svg 
  width="24" 
  height="24" 
  viewBox="0 0 24 24" 
  fill="currentColor"
  stroke="none"
  role="img"
  aria-label="Payments"
  aria-hidden="false"
  focusable="false"
  xmlns="http://www.w3.org/2000/svg"
>
  <path d="M20 4H4C2.89 4 2.01 4.89 2.01 6L2 18C2 19.11 2.89 20 4 20H20C21.11 20 22 19.11 22 18V6C22 4.89 21.11 4 20 4ZM20 18H4V12H20V18ZM20 8H4V6H20V8ZM13 16H6C5.45 16 5 15.55 5 15C5 14.45 5.45 14 6 14H13C13.55 14 14 14.45 14 15C14 15.55 13.55 16 13 16ZM17 16H15C14.45 16 14 15.55 14 15C14 14.45 14.45 14 15 14H17C17.55 14 18 14.45 18 15C18 15.55 17.55 16 17 16Z"/>
</svg>