<svg
  xmlns="http://www.w3.org/2000/svg"
  width="24"
  height="24"
  viewBox="0 0 24 24"
  fill="currentColor"
  role="img"
  aria-label="Settings"
>
  <path
    d="M12 8c-2.2 0-4 1.8-4 4s1.8 4 4 4 4-1.8 4-4-1.8-4-4-4zm0 6c-1.1 0-2-.9-2-2s.9-2 2-2 2 .9 2 2-.9 2-2 2z"
  />
  <path
    d="M13.9 3h-3.8l-.8 3.3c-.5.2-.9.4-1.3.7l-3.1-1.4-2.7 2.7 1.4 3.1c-.3.4-.5.9-.7 1.3L0 13.9v3.8l3.3.8c.2.5.4.9.7 1.3l-1.4 3.1 2.7 2.7 3.1-1.4c.4.3.9.5 1.3.7l.8 3.3h3.8l.8-3.3c.5-.2.9-.4 1.3-.7l3.1 1.4 2.7-2.7-1.4-3.1c.3-.4.5-.9.7-1.3l3.3-.8v-3.8l-3.3-.8c-.2-.5-.4-.9-.7-1.3l1.4-3.1-2.7-2.7L17 7.8c-.4-.3-.9-.5-1.3-.7L14.9 3zm-1.9 17c-3.9 0-7-3.1-7-7s3.1-7 7-7 7 3.1 7 7-3.1 7-7 7z"
  />
</svg>